<svg width="86" height="86" viewBox="0 0 86 86" fill="none" xmlns="http://www.w3.org/2000/svg">
<g id="Frame" clip-path="url(#clip0_308_4426)">
<path id="Vector" d="M31.5812 41.6097C33.2188 40.2481 34.8707 40.2481 36.5477 41.6492L36.9347 42.0003L54.8012 59.8668L55.1381 60.1642C55.8275 60.6987 56.6883 60.9632 57.5589 60.9083C58.4296 60.8534 59.2503 60.4827 59.8671 59.8659C60.484 59.249 60.8546 58.4283 60.9095 57.5577C60.9645 56.6871 60.6999 55.8263 60.1655 55.1368L59.8681 54.8L55.2384 50.1667L56.2847 49.1168L56.6646 48.7764C58.3021 47.4147 59.954 47.4147 61.6311 48.8158L62.018 49.167L78.7666 65.9191C78.4273 69.3314 76.8759 72.509 74.394 74.8752C71.9121 77.2414 68.6641 78.6394 65.2395 78.8155L64.5013 78.8334H21.5013C17.9463 78.8332 14.5182 77.5119 11.8828 75.126C9.24729 72.7402 7.59247 69.4601 7.23964 65.9227L31.2014 41.9502L31.5812 41.6097ZM64.5013 7.16675C68.1787 7.16675 71.7154 8.58014 74.3799 11.1146C77.0444 13.649 78.6329 17.1106 78.8167 20.7834L78.8346 21.5001V55.8463L67.0347 44.05L66.4972 43.5591C61.9965 39.6353 56.2847 39.6282 51.8199 43.4982L51.2681 43.9998L50.168 45.0963L41.9514 36.8833L41.4139 36.3924C36.9132 32.4687 31.2014 32.4615 26.7366 36.3315L26.1847 36.8332L7.16797 55.8463V21.5001C7.16797 17.8227 8.58136 14.286 11.1158 11.6215C13.6503 8.957 17.1119 7.36853 20.7846 7.18467L21.5013 7.16675H64.5013ZM53.7871 25.0834L53.3321 25.1085C52.4611 25.2121 51.6584 25.6315 51.076 26.2873C50.4936 26.9431 50.172 27.7897 50.172 28.6667C50.172 29.5438 50.4936 30.3904 51.076 31.0462C51.6584 31.702 52.4611 32.1214 53.3321 32.225L53.7513 32.2501L54.2064 32.225C55.0773 32.1214 55.88 31.702 56.4624 31.0462C57.0448 30.3904 57.3665 29.5438 57.3665 28.6667C57.3665 27.7897 57.0448 26.9431 56.4624 26.2873C55.88 25.6315 55.0773 25.2121 54.2064 25.1085L53.7871 25.0834Z" fill="#CBCBCB"/>
</g>
<defs>
<clipPath id="clip0_308_4426">
<rect width="86" height="86" fill="white"/>
</clipPath>
</defs>
</svg>
