<svg width="70" height="70" viewBox="0 0 70 70" fill="none" xmlns="http://www.w3.org/2000/svg">
<g id="deposit" clip-path="url(#clip0_21_3917)">
<g id="Group">
<g id="Group_2">
<path id="Vector" d="M44.1076 52.3235C58.4076 52.3235 70.0001 40.7311 70.0001 26.4311C70.0001 12.131 58.4076 0.538574 44.1076 0.538574C29.8075 0.538574 18.2151 12.131 18.2151 26.4311C18.2151 40.7311 29.8075 52.3235 44.1076 52.3235Z" fill="#80B4FB"/>
<path id="Vector_2" d="M45.9881 52.2563C45.3671 52.3022 44.7405 52.3245 44.1085 52.3245C29.8079 52.3245 18.2153 40.732 18.2153 26.4313C18.2153 12.1322 29.8079 0.539551 44.1085 0.539551C44.7405 0.539551 45.3671 0.561836 45.9881 0.607773C32.5646 1.56986 21.9761 12.7643 21.9761 26.4313C21.9759 40.0999 32.5646 51.2942 45.9881 52.2563Z" fill="#61A2F9"/>
<path id="Vector_3" d="M44.1077 46.3408C55.1035 46.3408 64.0173 37.427 64.0173 26.4312C64.0173 15.4353 55.1035 6.52148 44.1077 6.52148C33.1119 6.52148 24.198 15.4353 24.198 26.4312C24.198 37.427 33.1119 46.3408 44.1077 46.3408Z" fill="#D3EFFB"/>
<path id="Vector_4" d="M47.2536 46.0933C46.2289 46.2563 45.179 46.3412 44.1084 46.3412C33.1118 46.3412 24.198 37.4275 24.198 26.4308C24.198 15.4356 33.1117 6.52197 44.1084 6.52197C45.179 6.52197 46.2289 6.60687 47.2536 6.76984C37.7523 8.27635 30.4886 16.505 30.4886 26.431C30.4886 36.3582 37.7523 44.5868 47.2536 46.0933Z" fill="#B1E4F9"/>
<path id="Vector_5" d="M44.1076 29.2154C42.5696 29.2154 41.3229 27.9687 41.3229 26.4307V16.2324C41.3229 14.6945 42.5696 13.4478 44.1076 13.4478C45.6455 13.4478 46.8922 14.6945 46.8922 16.2324V26.4307C46.8922 27.9687 45.6455 29.2154 44.1076 29.2154Z" fill="#665E66"/>
<g id="Group_3">
<path id="Vector_6" d="M50.5243 29.2159H44.1077C42.5697 29.2159 41.323 27.9691 41.323 26.4312C41.323 24.8932 42.5697 23.6465 44.1077 23.6465H50.5243C52.0623 23.6465 53.309 24.8932 53.309 26.4312C53.309 27.9691 52.0623 29.2159 50.5243 29.2159Z" fill="#756E78"/>
<path id="Vector_7" d="M27.5818 27.4876H24.1981C23.6148 27.4876 23.1418 27.0147 23.1418 26.4313C23.1418 25.8479 23.6148 25.375 24.1981 25.375H27.5818C28.1652 25.375 28.6381 25.8479 28.6381 26.4313C28.6381 27.0147 28.1652 27.4876 27.5818 27.4876Z" fill="#756E78"/>
<path id="Vector_8" d="M64.0173 27.4876H60.6337C60.0503 27.4876 59.5774 27.0147 59.5774 26.4313C59.5774 25.8479 60.0503 25.375 60.6337 25.375H64.0173C64.6007 25.375 65.0736 25.8479 65.0736 26.4313C65.0736 27.0147 64.6007 27.4876 64.0173 27.4876Z" fill="#756E78"/>
<path id="Vector_9" d="M44.1077 10.9616C43.5243 10.9616 43.0514 10.4887 43.0514 9.90527V6.52162C43.0514 5.93824 43.5243 5.46533 44.1077 5.46533C44.6911 5.46533 45.164 5.93824 45.164 6.52162V9.90527C45.1641 10.4887 44.6911 10.9616 44.1077 10.9616Z" fill="#756E78"/>
<path id="Vector_10" d="M44.1077 47.3971C43.5243 47.3971 43.0514 46.9242 43.0514 46.3408V42.9572C43.0514 42.3738 43.5243 41.9009 44.1077 41.9009C44.6911 41.9009 45.164 42.3738 45.164 42.9572V46.3408C45.1641 46.9242 44.6911 47.3971 44.1077 47.3971Z" fill="#756E78"/>
</g>
<path id="Vector_11" d="M54.4213 19.7835C56.1707 19.7835 57.5889 18.3653 57.5889 16.6159C57.5889 14.8664 56.1707 13.4482 54.4213 13.4482C52.6719 13.4482 51.2537 14.8664 51.2537 16.6159C51.2537 18.3653 52.6719 19.7835 54.4213 19.7835Z" fill="white"/>
<path id="Vector_12" d="M44.1076 47.3971C32.5469 47.3971 23.1416 37.9918 23.1416 26.4312C23.1416 14.8705 32.5469 5.46533 44.1076 5.46533C55.6682 5.46533 65.0735 14.8706 65.0735 26.4313C65.0735 37.992 55.6682 47.3971 44.1076 47.3971ZM44.1076 7.57791C33.7119 7.57791 25.2543 16.0355 25.2543 26.4312C25.2543 36.8268 33.7119 45.2844 44.1076 45.2844C54.5032 45.2844 62.9608 36.8268 62.9608 26.4312C62.9608 16.0355 54.5032 7.57791 44.1076 7.57791Z" fill="#61A2F9"/>
</g>
<g id="Group_4">
<path id="Vector_13" d="M34.9736 60.7939V54.4026C34.9736 46.8538 28.8541 40.7344 21.3054 40.7344H17.9957C10.447 40.7344 4.32756 46.8539 4.32756 54.4026V60.7939C1.93744 60.7939 0 62.7312 0 65.1212C0 67.5112 1.93744 69.4486 4.32742 69.4486H34.9736C37.3636 69.4486 39.301 67.5112 39.301 65.1212C39.301 62.7312 37.3636 60.7939 34.9736 60.7939Z" fill="#C6865C"/>
<path id="Vector_14" d="M23.52 40.9135C17.0239 41.97 12.0658 47.6078 12.0658 54.4025V60.7929C9.67613 60.7929 7.73773 62.7313 7.73773 65.121C7.73773 66.3159 8.22172 67.3972 9.00566 68.1812C9.78961 68.9639 10.8709 69.4478 12.0658 69.4478H4.32811C3.13332 69.4478 2.05188 68.9638 1.26793 68.1812C0.483984 67.3971 0 66.3158 0 65.1209C0 62.7312 1.9384 60.7928 4.32811 60.7928V54.4024C4.32811 46.8538 10.4471 40.7334 17.9959 40.7334H21.3065C22.0604 40.7334 22.7987 40.7946 23.52 40.9135Z" fill="#AA7A63"/>
<path id="Vector_15" d="M23.1476 28.699C21.2281 28.6306 19.6505 30.1665 19.6505 32.0709C19.6505 30.1666 18.0729 28.6308 16.1534 28.699C14.325 28.7639 12.9023 30.3222 12.9023 32.1517V33.9858C12.9023 37.7127 15.9236 40.7339 19.6505 40.7339C23.3775 40.7339 26.3987 37.7127 26.3987 33.9858V32.1517C26.3985 30.3222 24.976 28.7641 23.1476 28.699Z" fill="#C6865C"/>
<path id="Vector_16" d="M21.4019 40.504C20.8435 40.6539 20.2554 40.7335 19.6501 40.7335C15.9234 40.7335 12.9023 37.7124 12.9023 33.9858V32.1518C12.9023 30.3217 14.3242 28.763 16.153 28.699C16.8456 28.6742 17.4939 28.8581 18.0391 29.1934C17.0544 29.8038 16.406 30.9166 16.406 32.1518V33.9858C16.4059 37.106 18.5244 39.733 21.4019 40.504Z" fill="#AA7A63"/>
</g>
<g id="Group_5">
<path id="Vector_17" d="M13.4396 64.3103C13.2846 64.3103 13.1272 64.2761 12.9785 64.2038C12.4537 63.9487 12.2353 63.3166 12.4904 62.7919L18.7136 49.992C18.9687 49.4673 19.6009 49.2491 20.1254 49.5039C20.6502 49.7591 20.8686 50.3911 20.6135 50.9158L14.3904 63.7157C14.2076 64.0916 13.8312 64.3103 13.4396 64.3103Z" fill="#F6E266"/>
<path id="Vector_18" d="M12.249 56.4298C10.1504 56.4298 8.44287 54.7187 8.44287 52.6154C8.44287 50.512 10.1502 48.8008 12.249 48.8008C14.3478 48.8008 16.0551 50.512 16.0551 52.6154C16.055 54.7187 14.3476 56.4298 12.249 56.4298ZM12.249 50.9135C11.3153 50.9135 10.5556 51.6769 10.5556 52.6154C10.5556 53.5538 11.3152 54.3172 12.249 54.3172C13.1826 54.3172 13.9424 53.5538 13.9424 52.6154C13.9422 51.6769 13.1826 50.9135 12.249 50.9135Z" fill="#F6E266"/>
<path id="Vector_19" d="M20.6535 65.1813C18.5549 65.1813 16.8474 63.4701 16.8474 61.3668C16.8474 59.2634 18.5548 57.5522 20.6535 57.5522C22.7523 57.5522 24.4596 59.2634 24.4596 61.3668C24.4596 63.4701 22.7522 65.1813 20.6535 65.1813ZM20.6535 59.665C19.7199 59.665 18.9601 60.4284 18.9601 61.3668C18.9601 62.3053 19.7197 63.0687 20.6535 63.0687C21.5872 63.0687 22.3469 62.3053 22.3469 61.3668C22.3469 60.4284 21.5873 59.665 20.6535 59.665Z" fill="#F6E266"/>
</g>
<g id="Group_6">
<path id="Vector_20" d="M45.599 54.0844C45.599 52.3858 44.2219 51.0088 42.5233 51.0088H29.3874C27.6888 51.0088 26.3118 52.3858 26.3118 54.0844C26.3118 55.783 27.6888 57.16 29.3874 57.16C27.6888 57.16 26.3118 58.5371 26.3118 60.2357C26.3118 61.9343 27.6888 63.3113 29.3874 63.3113C27.6888 63.3113 26.3118 64.6883 26.3118 66.3869C26.3118 68.0855 27.6888 69.4625 29.3874 69.4625H42.5233C44.2219 69.4625 45.599 68.0855 45.599 66.3869C45.599 64.6883 44.2219 63.3113 42.5233 63.3113C44.2219 63.3113 45.599 61.9343 45.599 60.2357C45.599 58.5371 44.2219 57.16 42.5233 57.16C44.2219 57.16 45.599 55.783 45.599 54.0844Z" fill="#F6E266"/>
<path id="Vector_21" d="M32.6104 54.0843C32.6104 52.3857 33.9878 51.0083 35.6864 51.0083H29.3878C27.6892 51.0083 26.3118 52.3857 26.3118 54.0843C26.3118 54.9336 26.6555 55.7027 27.2132 56.259C27.7695 56.8153 28.5385 57.159 29.3878 57.159H29.3894L29.3878 57.1596C27.6892 57.1596 26.3118 58.537 26.3118 60.2356C26.3118 61.0849 26.6555 61.8539 27.2132 62.4102C27.7695 62.9665 28.5385 63.3103 29.3878 63.3103L29.3888 63.3108H29.3878C27.6892 63.3108 26.3118 64.6882 26.3118 66.3868C26.3118 67.2361 26.6555 68.0052 27.2132 68.5615C27.7695 69.1178 28.5385 69.4615 29.3878 69.4615H35.6864C34.8371 69.4615 34.0681 69.1178 33.5118 68.5615C32.954 68.0052 32.6104 67.2361 32.6104 66.3868C32.6104 64.6882 33.9878 63.3108 35.6864 63.3108V63.3103C34.8371 63.3103 34.0681 62.9665 33.5118 62.4102C32.954 61.8539 32.6104 61.0849 32.6104 60.2356C32.6104 58.537 33.9878 57.1596 35.6864 57.1596V57.159C34.8371 57.159 34.0681 56.8153 33.5118 56.259C32.954 55.7027 32.6104 54.9336 32.6104 54.0843Z" fill="#FFD064"/>
<g id="Group_7">
<path id="Vector_22" d="M53.8341 60.2358C53.8341 58.5372 52.457 57.1602 50.7584 57.1602H37.6225C35.9239 57.1602 34.5469 58.5372 34.5469 60.2358C34.5469 61.9344 35.9239 63.3114 37.6225 63.3114C35.9239 63.3114 34.5469 64.6884 34.5469 66.387C34.5469 68.0856 35.9239 69.4627 37.6225 69.4627H50.7584C52.457 69.4627 53.8341 68.0856 53.8341 66.387C53.8341 64.6884 52.457 63.3114 50.7584 63.3114C52.457 63.3114 53.8341 61.9344 53.8341 60.2358Z" fill="#F6E266"/>
<path id="Vector_23" d="M41.7469 62.4104C41.1891 61.854 40.8455 61.085 40.8455 60.2357C40.8455 58.5371 42.2229 57.1597 43.9215 57.1597H37.6229C35.9243 57.1597 34.5469 58.5371 34.5469 60.2357C34.5469 61.085 34.8906 61.854 35.4483 62.4104C36.0046 62.9667 36.7736 63.3104 37.6229 63.3104H37.6237L37.6229 63.3109C35.9243 63.3109 34.5469 64.6884 34.5469 66.387C34.5469 67.2362 34.8906 68.0053 35.4483 68.5616C36.0046 69.1179 36.7736 69.4616 37.6229 69.4616H43.9215C43.0722 69.4616 42.3032 69.1179 41.7469 68.5616C41.1891 68.0053 40.8455 67.2362 40.8455 66.387C40.8455 64.6884 42.2229 63.3109 43.9215 63.3109V63.3104C43.0722 63.3104 42.3032 62.9667 41.7469 62.4104Z" fill="#FFD064"/>
</g>
</g>
</g>
</g>
<defs>
<clipPath id="clip0_21_3917">
<rect width="70" height="70" fill="white" transform="translate(0 0.000488281)"/>
</clipPath>
</defs>
</svg>
