<svg width="70" height="70" viewBox="0 0 70 70" fill="none" xmlns="http://www.w3.org/2000/svg">
<g id="food-delivery" clip-path="url(#clip0_21_3880)">
<g id="Group">
<path id="Vector" d="M30.8984 0.000488281C27.5059 0.000488281 24.7461 2.76029 24.7461 6.15283V8.34033L28.8477 10.3911H30.8984H32.9492L37.0508 8.34033V6.15283C37.0508 2.76029 34.291 0.000488281 30.8984 0.000488281Z" fill="#FF6A4D"/>
<path id="Vector_2" d="M37.0508 8.34033V6.15283C37.0508 2.76029 34.291 0.000488281 30.8984 0.000488281V10.3911H32.9492L37.0508 8.34033Z" fill="#E64D2E"/>
<path id="Vector_3" d="M0 61.7974C0.950332 66.4775 5.2932 70.0005 10.2539 70.0005C15.2146 70.0005 19.6942 66.4775 20.6445 61.7974L16.1891 59.7466H2.84703L0 61.7974Z" fill="#474F54"/>
<path id="Vector_4" d="M10.2539 65.8989C6.86137 65.8989 4.10156 63.1391 4.10156 59.7466C4.10156 56.354 6.86137 53.5942 10.2539 53.5942C13.6464 53.5942 16.543 56.354 16.543 59.7466C16.543 63.1391 13.6464 65.8989 10.2539 65.8989Z" fill="#F2F9FF"/>
<path id="Vector_5" d="M20.6445 24.8833H8.20312L4.10156 28.9849V41.2896L8.20312 43.3403H20.6445L26.7969 41.2896V30.2153L24.7461 28.9849L20.6445 24.8833Z" fill="#FF9100"/>
<path id="Vector_6" d="M4.10156 20.7817V28.9849H24.7461L26.7969 27.9232L24.7461 26.9341V20.7817H4.10156Z" fill="#FABE2C"/>
<path id="Vector_7" d="M32.9492 61.7974H0V59.7466C0 51.8183 6.56387 45.3911 14.4922 45.3911L17.9102 43.3403H37.0508V58.3794L32.9492 61.7974Z" fill="#FF6A4D"/>
<path id="Vector_8" d="M0 41.2896H28.8477V45.3911H0V41.2896Z" fill="#32393F"/>
<path id="Vector_9" d="M43.2031 51.6664V59.3773L41.1523 61.7974H32.9492V45.3911H28.8477C26.5918 45.3911 24.7461 43.5454 24.7461 41.2896V31.0356H37.0508V37.188C39.3066 37.188 41.1523 39.0337 41.1523 41.2896V49.4927L43.2031 51.6664Z" fill="#575F64"/>
<path id="Vector_10" d="M43.2031 51.6664V59.3773L41.1523 61.7974H32.9492V45.3911H30.8984V31.0356H37.0508V37.188C39.3066 37.188 41.1523 39.0337 41.1523 41.2896V49.4927L43.2031 51.6664Z" fill="#474F54"/>
<g id="Group_2">
<path id="Vector_11" d="M37.0508 28.9849V26.9341C37.0508 23.5415 34.291 20.7817 30.8984 20.7817C27.5059 20.7817 24.7461 23.5415 24.7461 26.9341V31.0356C24.7461 34.4335 27.5006 37.188 30.8984 37.188H47.4414C50.8393 37.188 53.5938 34.4335 53.5938 31.0356V28.9849H37.0508Z" fill="#FF6A4D"/>
<path id="Vector_12" d="M53.5938 31.0356V28.9849H37.0508V26.9341C37.0508 23.5415 34.291 20.7817 30.8984 20.7817V37.188H47.4414C50.8393 37.188 53.5938 34.4335 53.5938 31.0356Z" fill="#E64D2E"/>
</g>
<path id="Vector_13" d="M32.9492 10.3911H30.8984H28.8477L24.7461 12.4419V14.4927C24.7461 17.8852 27.5059 20.7817 30.8984 20.7817C34.291 20.7817 37.0508 17.8852 37.0508 14.4927V12.4419L32.9492 10.3911Z" fill="#FFE1BA"/>
<path id="Vector_14" d="M37.0508 14.4927V12.4419L32.9492 10.3911H30.8984V20.7817C34.291 20.7817 37.0508 17.8852 37.0508 14.4927Z" fill="#FFBFAB"/>
<path id="Vector_15" d="M30.8984 8.34033H24.7461V12.4419H30.8984H41.1523V8.34033H30.8984Z" fill="#474F54"/>
<path id="Vector_16" d="M30.8984 8.34033H41.1523V12.4419H30.8984V8.34033Z" fill="#32393F"/>
<path id="Vector_17" d="M59.2454 41.7481C59.0192 40.1519 58.5704 37.0077 57.6754 30.7451L49.4922 26.9341V43.3403C49.4922 46.5755 46.7052 49.4927 43.2031 49.4927H41.1523V61.7974H45.2539H65.8984L70 59.7466V55.645C70 49.0842 65.4739 43.3644 59.2454 41.7481Z" fill="#E64D2E"/>
<g id="Group_3">
<path id="Vector_18" d="M61.7969 33.0864H55.6445C52.252 33.0864 49.4922 30.3266 49.4922 26.9341C49.4922 23.5415 52.252 20.7817 55.6445 20.7817H61.7969V33.0864Z" fill="#FF6A4D"/>
</g>
<path id="Vector_19" d="M60.3624 49.5552L59.7661 51.834L56.3001 50.1314C52.3448 51.5548 49.4922 55.3075 49.4922 59.7467C49.4922 65.4005 54.0924 70.0006 59.7461 70.0006C65.3998 70.0006 70 65.4005 70 59.7467C70 54.3041 65.7244 49.8811 60.3624 49.5552Z" fill="#32393F"/>
<g id="Group_4">
<path id="Vector_20" d="M59.7461 53.5942C56.3536 53.5942 53.5938 56.354 53.5938 59.7466C53.5938 63.1391 56.3536 65.8989 59.7461 65.8989C63.1386 65.8989 65.8984 63.1391 65.8984 59.7466C65.8984 56.354 63.1386 53.5942 59.7461 53.5942Z" fill="#DFE7F4"/>
</g>
<path id="Vector_21" d="M61.777 59.4562L60.3626 49.555C60.1544 49.5424 59.9572 49.4927 59.7462 49.4927C58.5318 49.4927 57.3821 49.742 56.3003 50.1313L57.7155 60.037L61.777 59.4562Z" fill="#C7CFE1"/>
</g>
</g>
<defs>
<clipPath id="clip0_21_3880">
<rect width="70" height="70" fill="white" transform="translate(0 0.000488281)"/>
</clipPath>
</defs>
</svg>
