<svg width="70" height="70" viewBox="0 0 70 70" fill="none" xmlns="http://www.w3.org/2000/svg">
<g id="high-quality" clip-path="url(#clip0_21_3981)">
<g id="layer1">
<path id="path23715" d="M57.1212 35.0347L65.2175 65.4623C66.4908 70.2475 62.2901 69.323 60.3482 68.5727C58.7276 67.9465 52.2543 65.4292 52.2543 65.4292C52.2543 65.4292 47.8932 67.7951 46.7146 68.4213C44.1461 69.786 41.5275 69.446 40.4001 66.1841C40.3705 66.0985 37.6031 56.7138 35 47.8833V35.0347H57.1212Z" fill="#F45558"/>
<g id="Group">
<path id="rect23394" d="M12.899 35.0898L4.78993 65.5654C3.51468 70.3581 7.72196 69.4322 9.66687 68.6807C11.29 68.0535 17.7735 65.5323 17.7735 65.5323C17.7735 65.5323 22.1416 67.9018 23.322 68.529C25.8946 69.8959 28.5172 69.5554 29.6464 66.2883C29.676 66.2026 32.4478 56.8031 35.055 47.9587V35.0898H12.899Z" fill="#F45558"/>
<path id="path15252" d="M35.0549 35.0898V47.9587C37.0503 54.7273 38.309 58.991 39.1942 61.9864C41.6836 61.4955 44.0333 57.2295 46.414 56.4443C48.9377 55.612 53.7615 57.946 55.9045 56.3745C58.0474 54.8031 57.2715 49.5008 58.824 47.3441C59.138 46.9078 59.606 46.5216 60.1569 46.1612L57.211 35.0898H35.0549Z" fill="#DB375B"/>
<path id="path15257" d="M13.1545 35.0898C12.9826 35.4898 12.7828 35.8994 12.5736 36.3129L10.9868 42.2767C12.141 44.5588 17.0333 45.473 18.5358 47.522C20.1073 49.6649 19.378 54.9737 21.5348 56.5262C23.6915 58.0787 28.4945 55.7022 31.0255 56.5123C31.4569 56.6503 31.8884 56.9039 32.3204 57.2266C33.3471 53.7466 33.7368 52.4306 35.0551 47.9587V35.0898H13.1545Z" fill="#DB375B"/>
</g>
<path id="path23391" d="M52.2621 53.5518C50.1225 55.1208 45.3063 52.7905 42.7866 53.6215C40.2669 54.4525 37.7819 59.1908 35.1287 59.2025C32.4756 59.2142 29.9489 54.498 27.422 53.6893C24.895 52.8805 20.0996 55.2533 17.9462 53.7032C15.7929 52.1532 16.5209 46.8526 14.9519 44.713C13.3829 42.5734 8.10864 41.6743 7.27763 39.1546C6.44662 36.6349 10.1512 32.7745 10.1395 30.1213C10.1278 27.4681 6.38929 23.6406 7.19804 21.1137C8.00679 18.5867 13.2729 17.6411 14.823 15.4878C16.373 13.3344 15.5982 8.04044 17.7378 6.47146C19.8774 4.90249 24.6936 7.23284 27.2133 6.40182C29.7331 5.57081 32.218 0.832521 34.8712 0.820823C37.5244 0.809093 40.051 5.52529 42.578 6.33405C45.1049 7.14279 49.9004 4.77004 52.0537 6.32009C54.2071 7.87012 53.4791 13.1707 55.048 15.3103C56.617 17.4499 61.8913 18.349 62.7223 20.8687C63.5533 23.3884 59.8487 27.2488 59.8604 29.902C59.8721 32.5552 63.6106 36.3827 62.8019 38.9096C61.9931 41.4366 56.727 42.3822 55.177 44.5355C53.6269 46.6889 54.4017 51.9829 52.2621 53.5518Z" fill="#FFD54F"/>
<path id="rect4225-8-0" fill-rule="evenodd" clip-rule="evenodd" d="M6.57959 62.2505V62.7974H7.67356V62.2505H6.57959ZM9.31367 62.2505V62.7974H10.4074V62.2505H9.31367ZM12.0475 62.2505V62.7974H13.1415V62.2505H12.0475ZM14.7827 62.2505V62.7974H15.8767V62.2505H14.7827ZM17.5165 62.2505V62.7974H18.6106V62.2505H17.5165ZM20.2506 62.2505V62.7974H21.3446V62.2505H20.2506ZM22.9858 62.2505V62.7974H24.0798V62.2505H22.9858ZM25.7197 62.2505V62.7974H26.8137V62.2505H25.7197ZM28.4537 62.2505V62.7974H29.5478V62.2505H28.4537Z" fill="#BF1D43"/>
<path id="path14890" d="M52.1596 30.0118C52.1596 34.5629 50.3517 38.9275 47.1336 42.1456C43.9156 45.3637 39.5509 47.1716 34.9999 47.1716C30.4488 47.1716 26.0841 45.3637 22.8661 42.1456C19.648 38.9275 17.8401 34.5629 17.8401 30.0118C17.8401 27.7584 18.2839 25.527 19.1463 23.4451C20.0087 21.3631 21.2726 19.4715 22.8661 17.878C24.4595 16.2846 26.3512 15.0206 28.4331 14.1583C30.515 13.2959 32.7464 12.8521 34.9999 12.8521C39.5509 12.8521 43.9156 14.66 47.1336 17.878C50.3517 21.0961 52.1596 25.4608 52.1596 30.0118Z" fill="#2196F3"/>
<path id="path15260" d="M45.2932 27.8149C44.531 29.2846 42.5083 30.8738 42.0787 32.2238C41.5011 34.0389 43.0253 37.5982 41.4911 38.7271C39.9569 39.856 37.0244 37.2604 35.1197 37.2719C33.759 37.2802 31.7504 38.6262 30.1497 38.99C30.0766 40.2006 30.1443 41.5728 30.8589 42.0855C32.4067 43.1958 35.5816 40.5616 37.4863 40.5501C39.3911 40.5385 42.5975 43.1342 44.1316 42.0053C45.6658 40.8764 44.1416 37.0432 44.7192 35.2281C45.2969 33.413 48.756 31.1655 48.1565 29.3576C47.8713 28.4977 46.5149 28.108 45.2932 27.8149Z" fill="#2979FF"/>
<path id="path27653" d="M34.625 8.83447L34.6301 9.38148L35.715 9.38856L35.7271 8.84256L34.625 8.83447ZM32.9618 8.92732L31.8668 9.06054L31.9414 9.60251L33.0183 9.4713L32.9618 8.92732ZM37.3893 8.96468L37.3247 9.50765L38.4006 9.65399L38.4803 9.11304L37.3893 8.96468ZM30.2257 9.36838L29.16 9.64592L29.3073 10.1727L30.3579 9.89821L30.2257 9.36838ZM40.1153 9.45214L39.978 9.98099L41.0236 10.2706L41.178 9.74583L40.1153 9.45214ZM27.5775 10.1677L26.5551 10.5795L26.7671 11.0841L27.7733 10.6784L27.5775 10.1677ZM42.7555 10.2928L42.5466 10.7975L43.5447 11.2244L43.7678 10.7258L42.7555 10.2928ZM25.0534 11.3061L24.0946 11.8501L24.3721 12.3214L25.3158 11.7865L25.0534 11.3061ZM45.2554 11.4747L44.9869 11.951L45.9235 12.5001L46.2061 12.0318L45.2554 11.4747ZM22.6998 12.7645L21.8208 13.4296L22.1578 13.8595L23.0238 13.2055L22.6998 12.7645ZM47.5837 12.9724L47.2547 13.4094L48.1115 14.0765L48.4537 13.6496L47.5837 12.9724ZM20.5562 14.5165L19.771 15.2906L20.1616 15.6731L20.9346 14.9121L20.5562 14.5165ZM49.6971 14.7598L49.3145 15.1503L50.0765 15.9224L50.4721 15.5449L49.6971 14.7598ZM18.6578 16.532L17.9806 17.4009L18.4176 17.73L19.0847 16.8741L18.6578 16.532ZM51.5621 16.8065L51.1312 17.1436L51.7862 18.0085L52.2272 17.6855L51.5621 16.8065ZM17.039 18.7765L16.4788 19.7252L16.9532 19.9967L17.5062 19.0622L17.039 18.7765ZM53.1446 19.0773L52.6733 19.3548L53.2092 20.2985L53.6896 20.0361L53.1446 19.0773ZM15.728 21.2128L15.294 22.2261L15.7996 22.435L16.2265 21.4369L15.728 21.2128ZM54.4193 21.5368L53.9147 21.7477L54.3214 22.755L54.8321 22.5582L54.4193 21.5368ZM14.744 23.8016L14.4482 24.8643L14.9781 25.0015L15.2677 23.957L14.744 23.8016ZM55.3559 24.1397L54.8291 24.287L55.1046 25.3366L55.6354 25.2054L55.3559 24.1397ZM14.1101 26.4952L13.9537 27.5852L14.4957 27.6569L14.6501 26.582L14.1101 26.4952ZM55.9473 26.8454L55.4053 26.9201L55.5365 27.997L56.0805 27.9405L55.9473 26.8454ZM13.8306 29.2515L13.8225 30.3536L14.3685 30.3484L14.3776 29.2635L13.8306 29.2515ZM56.1784 29.6047L55.6314 29.6078L55.6183 30.8229L56.1643 30.8401L56.1784 29.6047ZM14.4563 31.9603L13.9123 32.0168L14.0445 33.1118L14.5865 33.0371L14.4563 31.9603ZM55.4951 32.4316L55.3387 33.5054L55.8787 33.5932L56.0371 32.5022L55.4951 32.4316ZM14.8832 34.6237L14.3514 34.7498L14.6218 35.8176L15.1507 35.6763L14.8832 34.6237ZM55.0057 35.0849L54.713 36.1305L55.2378 36.2849L55.5345 35.2232L55.0057 35.0849ZM15.6553 37.2073L15.1446 37.4021L15.5554 38.4255L16.06 38.2135L15.6553 37.2073ZM54.1751 37.6494L53.7461 38.6465L54.2447 38.8706L54.6807 37.8573L54.1751 37.6494ZM16.7584 39.6669L16.278 39.9293L16.821 40.888L17.2923 40.6115L16.7584 39.6669ZM53.0144 40.0837L52.4583 41.0152L52.9226 41.3028L53.4888 40.3572L53.0144 40.0837ZM18.1744 41.9619L17.7333 42.2848L18.3974 43.1649L18.8284 42.8278L18.1744 41.9619ZM51.547 42.3454L50.8728 43.1962L51.2957 43.5423L51.98 42.6794L51.547 42.3454ZM19.877 44.053L19.4823 44.4315L20.2544 45.2167L20.6379 44.8271L19.877 44.053ZM49.7949 44.3972L49.0168 45.1541L49.3923 45.5517L50.1815 44.7837L49.7949 44.3972ZM21.8379 45.906L21.4948 46.3309L22.3607 47.0111L22.6927 46.5761L21.8379 45.906ZM47.7906 46.2037L46.9237 46.8577L47.2476 47.2977L48.1267 46.6347L47.7906 46.2037ZM24.0239 47.4875L23.7363 47.9527L24.683 48.5169L24.9565 48.0436L24.0239 47.4875ZM45.5713 47.7357L44.6266 48.2696L44.888 48.749L45.8478 48.2071L45.5713 47.7357ZM26.3957 48.7712L26.1716 49.2698L27.1849 49.7048L27.3918 49.1991L26.3957 48.7712ZM43.1713 48.965L42.1651 49.3687L42.3599 49.8794L43.3832 49.4686L43.1713 48.965ZM28.9127 49.734L28.7583 50.2589L29.82 50.5546L29.9583 50.0247L28.9127 49.734ZM40.633 49.8693L39.5804 50.1347L39.7055 50.6676L40.7743 50.3981L40.633 49.8693ZM31.5377 50.3557L31.451 50.8957L32.5419 51.0531L32.6126 50.5112L31.5377 50.3557ZM37.9929 50.4294L36.916 50.5586L36.9725 51.1026L38.0675 50.9714L37.9929 50.4294ZM34.2183 50.6333L34.2072 51.1803L35.3083 51.1904L35.3043 50.6434L34.2183 50.6333Z" fill="#FF7377"/>
<path id="path14943" fill-rule="evenodd" clip-rule="evenodd" d="M40.4175 62.2505V62.7974H41.5115V62.2505H40.4175ZM43.1516 62.2505V62.7974H44.2453V62.2505H43.1516ZM45.8854 62.2505V62.7974H46.9794V62.2505H45.8854ZM48.6206 62.2505V62.7974H49.7146V62.2505H48.6206ZM51.3544 62.2505V62.7974H52.4485V62.2505H51.3544ZM54.0885 62.2505V62.7974H55.1825V62.2505H54.0885ZM56.8237 62.2505V62.7974H57.9177V62.2505H56.8237ZM59.5576 62.2505V62.7974H60.6516V62.2505H59.5576ZM62.2916 62.2505V62.7974H63.3857V62.2505H62.2916Z" fill="#BF1D43"/>
<path id="path23807" d="M41.6993 38.9396C40.1675 40.0667 36.9662 37.4752 35.0644 37.4867C33.1627 37.4982 29.9929 40.1282 28.4476 39.0197C26.9023 37.9112 28.3777 34.0658 27.7791 32.2606C27.1805 30.4555 23.6997 28.2537 24.2764 26.4414C24.8531 24.6292 28.9663 24.8441 30.4981 23.717C32.0299 22.5898 33.0483 18.5989 34.9501 18.5874C36.8518 18.5759 37.9185 22.5542 39.4638 23.6627C41.0091 24.7712 45.1194 24.5066 45.718 26.3117C46.3167 28.1168 42.8627 30.3606 42.286 32.1729C41.7093 33.9851 43.2311 37.8124 41.6993 38.9396Z" fill="#D9DEFB"/>
</g>
</g>
<defs>
<clipPath id="clip0_21_3981">
<rect width="70" height="70" fill="white" transform="translate(0 0.000488281)"/>
</clipPath>
</defs>
</svg>
