<svg width="70" height="70" viewBox="0 0 70 70" fill="none" xmlns="http://www.w3.org/2000/svg">
<g id="location" clip-path="url(#clip0_21_3959)">
<path id="Vector" d="M56.7149 7.56494C56.5564 34.6443 34.6438 56.5569 7.56445 56.7154C15.9233 67.2846 29.6085 72.1143 42.7492 69.1337C55.8906 66.1526 66.1521 55.891 69.1332 42.7497C72.1138 29.609 67.2841 15.9237 56.7149 7.56494Z" fill="#83D8F4"/>
<path id="Vector_2" d="M56.7146 7.56465C42.7908 -3.46768 22.8086 -2.31389 10.2471 10.2476C-2.31438 22.8091 -3.46817 42.7913 7.56416 56.7151C34.6435 56.5566 56.5561 34.644 56.7146 7.56465Z" fill="#91DCF5"/>
<path id="Vector_3" d="M51.8958 14.4846C49.2288 15.6915 47.7568 14.2678 45.8617 15.6915C43.5205 17.4534 42.5794 22.0155 44.6548 25.3461C46.1239 27.6926 48.7579 28.2812 51.732 28.9306C54.742 22.7556 56.4273 16.0203 56.6801 9.15527C55.8027 11.4646 54.0973 13.3644 51.8958 14.4846Z" fill="#00BB77"/>
<path id="Vector_4" d="M57.0961 7.86426C56.9871 8.30444 56.8463 8.73579 56.6748 9.15535C56.4226 16.0204 54.7367 22.7557 51.7273 28.9307L51.8958 28.9666C56.0355 29.8718 57.6406 27.9531 61.5504 28.9666C63.2947 29.4669 64.9311 30.2854 66.3777 31.3803C68.0542 32.7633 69.2935 34.6036 69.944 36.6772C69.9705 36.121 69.9982 35.5647 69.9982 35.0008C70.0077 24.4729 65.267 14.503 57.0961 7.86426Z" fill="#00A468"/>
<path id="Vector_5" d="M33.7935 49.4825C36.183 52.1254 36.8105 56.5909 35.0003 59.1371C33.5283 61.2131 31.513 60.5007 30.173 62.7576C29.1595 64.6415 29.1595 66.9084 30.173 68.7917C30.3592 69.1323 30.5814 69.4511 30.8359 69.744C32.2178 69.9108 33.6085 69.9956 35.0003 69.9986C47.7627 70.0021 59.514 63.0558 65.6648 51.8732C63.4698 50.4047 60.0408 48.4619 56.7232 48.2757C53.3231 47.9433 49.9124 48.796 47.0686 50.6893C43.5088 53.2963 42.8087 56.9892 41.0344 56.7235C39.7793 56.5426 39.0916 54.5149 38.6208 53.103C37.543 49.8879 38.1276 47.7123 38.1176 45.9092C36.6438 47.0883 35.104 48.182 33.5053 49.1843C33.6297 49.3063 33.7322 49.4142 33.7935 49.4825Z" fill="#00A468"/>
<path id="Vector_6" d="M37.4139 43.4488C36.1712 41.711 33.8542 41.3852 31.3798 41.0351C26.1907 40.3109 24.1512 42.5437 21.7252 41.0351C19.7482 39.7187 18.7877 37.3186 19.3115 35.001C20.3257 31.9721 24.7546 32.9981 30.173 28.9669C31.9231 27.6758 36.0863 24.5744 36.2071 20.5191C36.3279 16.5486 32.4541 15.4142 31.3798 10.8645C30.9131 8.90454 31.7841 4.39721 33.9915 0.0395508C20.9998 0.406667 9.28274 7.94521 3.56269 19.6151V19.6263C2.78839 23.9139 2.80901 28.3075 3.6228 32.5873C4.35938 37.4512 5.03469 41.8678 8.4501 45.8624C9.94685 47.6244 12.2515 50.3038 15.6911 50.6897C19.5048 51.1122 24.5372 48.6744 25.3457 48.2761C26.427 47.566 27.6751 47.15 28.9662 47.0693C30.6915 47.1795 32.312 47.9343 33.5053 49.1847C35.104 48.1824 36.6438 47.0887 38.1175 45.9096C38.1582 45.0345 37.9113 44.17 37.4139 43.4488Z" fill="#00BB77"/>
<path id="Vector_7" d="M25.3456 9.65754C25.3456 14.9916 15.691 27.7599 15.691 27.7599C15.691 27.7599 9.66923 19.7948 7.13478 13.8213C6.51074 12.5143 6.13832 11.1018 6.03638 9.65754C6.03638 4.32582 10.3593 0.00292969 15.691 0.00292969C21.0233 0.00292969 25.3456 4.32582 25.3456 9.65754Z" fill="#FF5023"/>
<path id="Vector_8" d="M19.3115 8.45056C19.3115 10.45 17.6904 12.071 15.691 12.071C13.6916 12.071 12.0706 10.45 12.0706 8.45056C12.0706 6.45116 13.6916 4.83008 15.691 4.83008C17.6904 4.83008 19.3115 6.45116 19.3115 8.45056Z" fill="#F1F2F2"/>
<path id="Vector_9" d="M61.5504 42.242C61.2853 44.5054 60.5493 46.6881 59.3902 48.6503C57.1757 52.7228 54.6713 56.6308 51.8958 60.3444C51.8958 60.3444 48.7338 56.1571 46.0184 51.5708C45.0179 49.9073 44.1228 48.1819 43.3396 46.4058C42.7156 45.0988 42.3432 43.6863 42.2412 42.242C42.2412 36.9103 46.5641 32.5874 51.8958 32.5874C57.2281 32.5874 61.5504 36.9103 61.5504 42.242Z" fill="#FFCD00"/>
<path id="Vector_10" d="M55.5163 41.035C55.5163 43.0344 53.8953 44.6555 51.8959 44.6555C49.8965 44.6555 48.2754 43.0344 48.2754 41.035C48.2754 39.0356 49.8965 37.4146 51.8959 37.4146C53.8953 37.4146 55.5163 39.0356 55.5163 41.035Z" fill="#F1F2F2"/>
</g>
<defs>
<clipPath id="clip0_21_3959">
<rect width="70" height="70" fill="white" transform="translate(0 0.000488281)"/>
</clipPath>
</defs>
</svg>
