<svg width="16" height="16" viewBox="0 0 16 16" fill="none" xmlns="http://www.w3.org/2000/svg">
<g id="Frame" clip-path="url(#clip0_292_3039)">
<path id="Vector" d="M8.00065 1.33325C11.6827 1.33325 14.6673 4.31792 14.6673 7.99992C14.6687 9.75023 13.9817 11.4309 12.7546 12.679C11.5275 13.9271 9.85875 14.6426 8.10867 14.671C6.35858 14.6993 4.66754 14.0383 3.40065 12.8306C2.13376 11.6229 1.39264 9.96536 1.33732 8.21592L1.33398 7.99992L1.33665 7.81325C1.43532 4.21792 4.38065 1.33325 8.00065 1.33325ZM8.00065 7.33325H7.33398L7.25598 7.33792C7.09395 7.35719 6.94461 7.43522 6.83626 7.55723C6.72791 7.67923 6.66806 7.83674 6.66806 7.99992C6.66806 8.16309 6.72791 8.3206 6.83626 8.44261C6.94461 8.56461 7.09395 8.64265 7.25598 8.66192L7.33398 8.66659V10.6666L7.33865 10.7446C7.3562 10.8934 7.42337 11.032 7.52933 11.1379C7.63528 11.2439 7.77384 11.311 7.92265 11.3286L8.00065 11.3333H8.66732L8.74532 11.3286C8.89413 11.311 9.03269 11.2439 9.13864 11.1379C9.2446 11.032 9.31177 10.8934 9.32932 10.7446L9.33398 10.6666L9.32932 10.5886C9.31338 10.4526 9.25594 10.3248 9.16481 10.2225C9.07368 10.1203 8.95328 10.0486 8.81998 10.0173L8.74532 10.0039L8.66732 9.99992V7.99992L8.66265 7.92192C8.6451 7.77311 8.57793 7.63455 8.47198 7.52859C8.36602 7.42264 8.22746 7.35547 8.07865 7.33792L8.00065 7.33325ZM8.00732 5.33325L7.92265 5.33792C7.76062 5.35719 7.61128 5.43522 7.50293 5.55723C7.39457 5.67923 7.33473 5.83674 7.33473 5.99992C7.33473 6.16309 7.39457 6.3206 7.50293 6.44261C7.61128 6.56461 7.76062 6.64265 7.92265 6.66192L8.00065 6.66659L8.08532 6.66192C8.24735 6.64265 8.39669 6.56461 8.50504 6.44261C8.6134 6.3206 8.67324 6.16309 8.67324 5.99992C8.67324 5.83674 8.6134 5.67923 8.50504 5.55723C8.39669 5.43522 8.24735 5.35719 8.08532 5.33792L8.00732 5.33325Z" fill="#CC5D56"/>
</g>
<defs>
<clipPath id="clip0_292_3039">
<rect width="16" height="16" fill="white"/>
</clipPath>
</defs>
</svg>
