<svg width="20" height="20" viewBox="0 0 20 20" fill="none" xmlns="http://www.w3.org/2000/svg">
<g id="user-edit" clip-path="url(#clip0_236_7204)">
<path id="Vector" d="M6.66699 5.83333C6.66699 6.71739 7.01818 7.56523 7.6433 8.19036C8.26842 8.81548 9.11627 9.16667 10.0003 9.16667C10.8844 9.16667 11.7322 8.81548 12.3573 8.19036C12.9825 7.56523 13.3337 6.71739 13.3337 5.83333C13.3337 4.94928 12.9825 4.10143 12.3573 3.47631C11.7322 2.85119 10.8844 2.5 10.0003 2.5C9.11627 2.5 8.26842 2.85119 7.6433 3.47631C7.01818 4.10143 6.66699 4.94928 6.66699 5.83333Z" stroke="#686868" stroke-width="1.5" stroke-linecap="round" stroke-linejoin="round"/>
<path id="Vector_2" d="M5 17.5V15.8333C5 14.9493 5.35119 14.1014 5.97631 13.4763C6.60143 12.8512 7.44928 12.5 8.33333 12.5H11.25" stroke="#686868" stroke-width="1.5" stroke-linecap="round" stroke-linejoin="round"/>
<path id="Vector_3" d="M15.35 13.0084C15.5125 12.8459 15.7054 12.717 15.9178 12.6291C16.1301 12.5411 16.3577 12.4958 16.5875 12.4958C16.8173 12.4958 17.0449 12.5411 17.2572 12.6291C17.4696 12.717 17.6625 12.8459 17.825 13.0084C17.9875 13.1709 18.1164 13.3639 18.2044 13.5762C18.2923 13.7885 18.3376 14.0161 18.3376 14.2459C18.3376 14.4758 18.2923 14.7033 18.2044 14.9157C18.1164 15.128 17.9875 15.3209 17.825 15.4834L15 18.3334H12.5V15.8334L15.35 13.0084Z" stroke="#686868" stroke-width="1.5" stroke-linecap="round" stroke-linejoin="round"/>
</g>
<defs>
<clipPath id="clip0_236_7204">
<rect width="20" height="20" fill="white"/>
</clipPath>
</defs>
</svg>
