<svg width="30" height="30" viewBox="0 0 30 30" fill="none" xmlns="http://www.w3.org/2000/svg">
<g id="Social Media / Instagram">
<g id="Logo 2">
<path id="Vector" d="M12.2692 14.9998C12.2692 13.4919 13.492 12.2692 15.0008 12.2692C16.5096 12.2692 17.733 13.4919 17.733 14.9998C17.733 16.5077 16.5096 17.7304 15.0008 17.7304C13.492 17.7304 12.2692 16.5077 12.2692 14.9998ZM10.7922 14.9998C10.7922 17.3228 12.6764 19.2059 15.0008 19.2059C17.3252 19.2059 19.2094 17.3228 19.2094 14.9998C19.2094 12.6768 17.3252 10.7937 15.0008 10.7937C12.6764 10.7937 10.7922 12.6768 10.7922 14.9998ZM18.3925 10.6269C18.3924 10.8213 18.45 11.0114 18.558 11.1731C18.666 11.3348 18.8196 11.4608 18.9993 11.5353C19.1789 11.6098 19.3767 11.6293 19.5675 11.5915C19.7583 11.5536 19.9336 11.4601 20.0712 11.3226C20.2088 11.1852 20.3025 11.0101 20.3406 10.8195C20.3786 10.6288 20.3592 10.4312 20.2848 10.2515C20.2104 10.0719 20.0844 9.91833 19.9227 9.81026C19.7611 9.70219 19.5709 9.64446 19.3764 9.64438H19.376C19.1153 9.6445 18.8652 9.74805 18.6808 9.93228C18.4964 10.1165 18.3927 10.3663 18.3925 10.6269ZM11.6896 21.6672C10.8905 21.6308 10.4561 21.4978 10.1675 21.3854C9.78486 21.2366 9.51183 21.0592 9.22477 20.7727C8.93771 20.4862 8.76002 20.2136 8.6117 19.8312C8.49918 19.5429 8.36608 19.1087 8.32975 18.3101C8.29002 17.4467 8.28208 17.1873 8.28208 14.9998C8.28208 12.8124 8.29067 12.5538 8.32975 11.6896C8.36614 10.891 8.50023 10.4577 8.6117 10.1685C8.76067 9.78606 8.9381 9.51319 9.22477 9.22631C9.51143 8.93942 9.7842 8.76183 10.1675 8.6136C10.456 8.50116 10.8905 8.36813 11.6896 8.33183C12.5535 8.29212 12.813 8.28419 15.0008 8.28419C17.1886 8.28419 17.4483 8.29277 18.313 8.33183C19.1121 8.3682 19.5457 8.5022 19.835 8.6136C20.2177 8.76183 20.4907 8.93981 20.7778 9.22631C21.0649 9.5128 21.2419 9.78606 21.3909 10.1685C21.5034 10.4568 21.6365 10.891 21.6728 11.6896C21.7125 12.5538 21.7205 12.8124 21.7205 14.9998C21.7205 17.1873 21.7125 17.4459 21.6728 18.3101C21.6364 19.1087 21.5027 19.5427 21.3909 19.8312C21.2419 20.2136 21.0645 20.4865 20.7778 20.7727C20.4911 21.059 20.2177 21.2366 19.835 21.3854C19.5465 21.4979 19.1121 21.6309 18.313 21.6672C17.4491 21.7069 17.1895 21.7149 15.0008 21.7149C12.812 21.7149 12.5532 21.7069 11.6896 21.6672ZM11.6217 6.8582C10.7492 6.89791 10.153 7.03618 9.63228 7.23866C9.09304 7.44777 8.63655 7.7283 8.18039 8.18347C7.72422 8.63864 7.44425 9.09557 7.23502 9.63449C7.03241 10.1552 6.89406 10.7507 6.85432 11.6227C6.81393 12.4961 6.80469 12.7753 6.80469 14.9998C6.80469 17.2242 6.81393 17.5035 6.85432 18.3768C6.89406 19.2489 7.03241 19.8444 7.23502 20.3651C7.44425 20.9037 7.72429 21.3611 8.18039 21.8161C8.63648 22.2711 9.09304 22.5512 9.63228 22.7609C10.1539 22.9634 10.7492 23.1017 11.6217 23.1414C12.4961 23.1811 12.775 23.191 15.0008 23.191C17.2266 23.191 17.506 23.1817 18.3799 23.1414C19.2525 23.1017 19.8483 22.9634 20.3693 22.7609C20.9082 22.5512 21.365 22.2713 21.8212 21.8161C22.2774 21.3609 22.5567 20.9037 22.7666 20.3651C22.9692 19.8444 23.1082 19.2488 23.1473 18.3768C23.187 17.5028 23.1962 17.2242 23.1962 14.9998C23.1962 12.7753 23.187 12.4961 23.1473 11.6227C23.1075 10.7507 22.9692 10.1549 22.7666 9.63449C22.5567 9.0959 22.2766 8.63936 21.8212 8.18347C21.3658 7.72758 20.9082 7.44777 20.37 7.23866C19.8483 7.03618 19.2524 6.89726 18.3805 6.8582C17.5066 6.81849 17.2272 6.80859 15.0014 6.80859C12.7756 6.80859 12.4961 6.81783 11.6217 6.8582Z" fill="url(#paint0_radial_349_8260)"/>
<path id="Vector_2" d="M12.2692 14.9998C12.2692 13.4919 13.492 12.2692 15.0008 12.2692C16.5096 12.2692 17.733 13.4919 17.733 14.9998C17.733 16.5077 16.5096 17.7304 15.0008 17.7304C13.492 17.7304 12.2692 16.5077 12.2692 14.9998ZM10.7922 14.9998C10.7922 17.3228 12.6764 19.2059 15.0008 19.2059C17.3252 19.2059 19.2094 17.3228 19.2094 14.9998C19.2094 12.6768 17.3252 10.7937 15.0008 10.7937C12.6764 10.7937 10.7922 12.6768 10.7922 14.9998ZM18.3925 10.6269C18.3924 10.8213 18.45 11.0114 18.558 11.1731C18.666 11.3348 18.8196 11.4608 18.9993 11.5353C19.1789 11.6098 19.3767 11.6293 19.5675 11.5915C19.7583 11.5536 19.9336 11.4601 20.0712 11.3226C20.2088 11.1852 20.3025 11.0101 20.3406 10.8195C20.3786 10.6288 20.3592 10.4312 20.2848 10.2515C20.2104 10.0719 20.0844 9.91833 19.9227 9.81026C19.7611 9.70219 19.5709 9.64446 19.3764 9.64438H19.376C19.1153 9.6445 18.8652 9.74805 18.6808 9.93228C18.4964 10.1165 18.3927 10.3663 18.3925 10.6269ZM11.6896 21.6672C10.8905 21.6308 10.4561 21.4978 10.1675 21.3854C9.78486 21.2366 9.51183 21.0592 9.22477 20.7727C8.93771 20.4862 8.76002 20.2136 8.6117 19.8312C8.49918 19.5429 8.36608 19.1087 8.32975 18.3101C8.29002 17.4467 8.28208 17.1873 8.28208 14.9998C8.28208 12.8124 8.29067 12.5538 8.32975 11.6896C8.36614 10.891 8.50023 10.4577 8.6117 10.1685C8.76067 9.78606 8.9381 9.51319 9.22477 9.22631C9.51143 8.93942 9.7842 8.76183 10.1675 8.6136C10.456 8.50116 10.8905 8.36813 11.6896 8.33183C12.5535 8.29212 12.813 8.28419 15.0008 8.28419C17.1886 8.28419 17.4483 8.29277 18.313 8.33183C19.1121 8.3682 19.5457 8.5022 19.835 8.6136C20.2177 8.76183 20.4907 8.93981 20.7778 9.22631C21.0649 9.5128 21.2419 9.78606 21.3909 10.1685C21.5034 10.4568 21.6365 10.891 21.6728 11.6896C21.7125 12.5538 21.7205 12.8124 21.7205 14.9998C21.7205 17.1873 21.7125 17.4459 21.6728 18.3101C21.6364 19.1087 21.5027 19.5427 21.3909 19.8312C21.2419 20.2136 21.0645 20.4865 20.7778 20.7727C20.4911 21.059 20.2177 21.2366 19.835 21.3854C19.5465 21.4979 19.1121 21.6309 18.313 21.6672C17.4491 21.7069 17.1895 21.7149 15.0008 21.7149C12.812 21.7149 12.5532 21.7069 11.6896 21.6672ZM11.6217 6.8582C10.7492 6.89791 10.153 7.03618 9.63228 7.23866C9.09304 7.44777 8.63655 7.7283 8.18039 8.18347C7.72422 8.63864 7.44425 9.09557 7.23502 9.63449C7.03241 10.1552 6.89406 10.7507 6.85432 11.6227C6.81393 12.4961 6.80469 12.7753 6.80469 14.9998C6.80469 17.2242 6.81393 17.5035 6.85432 18.3768C6.89406 19.2489 7.03241 19.8444 7.23502 20.3651C7.44425 20.9037 7.72429 21.3611 8.18039 21.8161C8.63648 22.2711 9.09304 22.5512 9.63228 22.7609C10.1539 22.9634 10.7492 23.1017 11.6217 23.1414C12.4961 23.1811 12.775 23.191 15.0008 23.191C17.2266 23.191 17.506 23.1817 18.3799 23.1414C19.2525 23.1017 19.8483 22.9634 20.3693 22.7609C20.9082 22.5512 21.365 22.2713 21.8212 21.8161C22.2774 21.3609 22.5567 20.9037 22.7666 20.3651C22.9692 19.8444 23.1082 19.2488 23.1473 18.3768C23.187 17.5028 23.1962 17.2242 23.1962 14.9998C23.1962 12.7753 23.187 12.4961 23.1473 11.6227C23.1075 10.7507 22.9692 10.1549 22.7666 9.63449C22.5567 9.0959 22.2766 8.63936 21.8212 8.18347C21.3658 7.72758 20.9082 7.44777 20.37 7.23866C19.8483 7.03618 19.2524 6.89726 18.3805 6.8582C17.5066 6.81849 17.2272 6.80859 15.0014 6.80859C12.7756 6.80859 12.4961 6.81783 11.6217 6.8582Z" fill="url(#paint1_radial_349_8260)"/>
</g>
</g>
<defs>
<radialGradient id="paint0_radial_349_8260" cx="0" cy="0" r="1" gradientUnits="userSpaceOnUse" gradientTransform="translate(8.98249 23.2684) scale(21.3986 21.3858)">
<stop offset="0.09" stop-color="#FA8F21"/>
<stop offset="0.78" stop-color="#D82D7E"/>
</radialGradient>
<radialGradient id="paint1_radial_349_8260" cx="0" cy="0" r="1" gradientUnits="userSpaceOnUse" gradientTransform="translate(16.7458 24.0023) rotate(-0.590313) scale(24.5057 24.491)">
<stop offset="0.64" stop-color="#8C3AAA" stop-opacity="0"/>
<stop offset="1" stop-color="#8C3AAA"/>
</radialGradient>
</defs>
</svg>
