<svg width="78" height="78" viewBox="0 0 78 78" fill="none" xmlns="http://www.w3.org/2000/svg">
<rect width="78" height="78" rx="39" fill="#F5EEED"/>
<path d="M26.1241 47.988C26.4867 48.3107 26.2694 48.1347 38.5787 52.2654C38.8523 52.3565 39.1479 52.3565 39.4214 52.2654C51.0001 48.3334 51.3787 48.4307 51.8774 47.988C52.0325 47.8431 52.1556 47.6673 52.2388 47.472C52.2987 47.3217 52.3308 47.1618 52.3334 47V31C52.3308 30.8383 52.2987 30.6783 52.2388 30.528C52.1556 30.3327 52.0325 30.157 51.8774 30.012C51.3934 29.5827 51.1214 29.692 39.4214 25.7347C39.1479 25.6436 38.8523 25.6436 38.5787 25.7347C34.8667 26.9787 26.7134 29.6667 26.3894 29.8334C26.2933 29.8814 26.2037 29.9414 26.1227 30.012C25.9676 30.1572 25.8441 30.3329 25.7601 30.528C25.7006 30.6784 25.669 30.8383 25.6667 31V47C25.6694 47.1618 25.7015 47.3217 25.7614 47.472C25.8452 47.6673 25.9687 47.8431 26.1241 47.988ZM49.6667 45.1494L44.7547 43.5134C44.4188 43.4016 44.0522 43.4279 43.7357 43.5864C43.4191 43.745 43.1785 44.0228 43.0667 44.3587C42.955 44.6946 42.9813 45.0612 43.1398 45.3778C43.2983 45.6943 43.5761 45.935 43.9121 46.0467L46.7841 47L40.3334 49.1494V35.9614L49.6667 32.8507V45.1494ZM39.0001 28.4054L46.7841 31L39.0001 33.5947L31.2161 31L39.0001 28.4054ZM28.3334 32.8507L37.6667 35.9614V49.1494L31.2161 47L34.0881 46.0427C34.424 45.931 34.7018 45.6903 34.8603 45.3738C35.0189 45.0572 35.0452 44.6906 34.9334 44.3547C34.8217 44.0188 34.5811 43.741 34.2645 43.5824C33.9479 43.4239 33.5814 43.3976 33.2454 43.5094L28.3334 45.1494V32.8507Z" fill="#CC5D56"/>
</svg>
