<svg width="30" height="30" viewBox="0 0 30 30" fill="none" xmlns="http://www.w3.org/2000/svg">
<g id="Social Media / Twitter">
<g id="Capa 2">
<g id="ELEMENTS">
<path id="Vector" d="M22.5884 10.2049C22.093 10.418 21.5722 10.5665 21.0389 10.6465C21.2883 10.6038 21.6551 10.155 21.8012 9.97334C22.023 9.69933 22.1921 9.38653 22.2998 9.05082C22.2998 9.02589 22.3248 8.99027 22.2998 8.97246C22.2873 8.9656 22.2732 8.96201 22.2589 8.96201C22.2446 8.96201 22.2305 8.9656 22.2179 8.97246C21.6388 9.28605 21.0225 9.5254 20.3836 9.68483C20.3613 9.69163 20.3376 9.69224 20.315 9.6866C20.2924 9.68095 20.2718 9.66926 20.2553 9.65277C20.2056 9.59355 20.1521 9.53763 20.0951 9.48537C19.8345 9.25187 19.5388 9.06076 19.2189 8.91904C18.787 8.74186 18.3205 8.66513 17.8547 8.69464C17.4026 8.72319 16.9613 8.84443 16.5582 9.05082C16.1611 9.26842 15.8122 9.56404 15.5323 9.91991C15.238 10.2862 15.0254 10.7113 14.909 11.1666C14.813 11.5996 14.8022 12.0472 14.877 12.4844C14.877 12.5592 14.877 12.5699 14.8129 12.5592C12.2733 12.1852 10.1896 11.2841 8.48703 9.35002C8.41223 9.26453 8.37305 9.26453 8.3125 9.35002C7.57164 10.4756 7.93138 12.2565 8.85746 13.1363C8.98213 13.2538 9.11035 13.3678 9.2457 13.4746C8.8211 13.4445 8.40687 13.3294 8.02755 13.1363C7.95632 13.0899 7.91714 13.1149 7.91357 13.2004C7.90348 13.3189 7.90348 13.438 7.91357 13.5565C7.98789 14.1245 8.21173 14.6626 8.56219 15.1157C8.91264 15.5687 9.37715 15.9206 9.9082 16.1353C10.0377 16.1908 10.1726 16.2326 10.3107 16.26C9.91762 16.3374 9.51447 16.3494 9.11748 16.2956C9.03199 16.2778 8.99993 16.3241 9.03199 16.406C9.55558 17.8308 10.6918 18.2653 11.5253 18.5075C11.6393 18.5253 11.7532 18.5253 11.8815 18.5538C11.8815 18.5538 11.8815 18.5538 11.8601 18.5752C11.6143 19.024 10.6206 19.3267 10.1647 19.4834C9.33249 19.7824 8.44525 19.8966 7.56451 19.8183C7.4256 19.7969 7.39355 19.8005 7.35793 19.8183C7.32231 19.8361 7.35793 19.8753 7.39711 19.9109C7.5752 20.0284 7.75329 20.1317 7.93851 20.2314C8.4899 20.5322 9.07282 20.7711 9.67668 20.9438C12.804 21.8058 16.3231 21.1718 18.6703 18.8388C20.5154 17.008 21.1636 14.4826 21.1636 11.9537C21.1636 11.8576 21.2812 11.8006 21.3488 11.7507C21.8156 11.387 22.2271 10.9575 22.5705 10.4756C22.63 10.4037 22.6605 10.3123 22.656 10.2191C22.656 10.1657 22.656 10.1764 22.5884 10.2049Z" fill="#33CCFF"/>
</g>
</g>
</g>
</svg>
