<svg width="78" height="78" viewBox="0 0 78 78" fill="none" xmlns="http://www.w3.org/2000/svg">
<rect width="78" height="78" rx="39" fill="#F8F8FB"/>
<g clip-path="url(#clip0_356_12469)">
<path d="M46.65 33.9719C46.4956 34.1155 46.2933 34.1966 46.0825 34.1997C45.8716 34.2027 45.6671 34.1275 45.5085 33.9884C43.9732 32.6925 42.0293 31.9806 40.02 31.9784C38.367 31.9784 36.7125 32.5229 36.7125 34.0394C36.7125 35.5739 38.4855 36.0854 40.5315 36.8519C44.1105 38.0459 47.076 39.5459 47.076 43.0574C47.076 46.8749 44.1105 49.4999 39.27 49.7894L38.8275 51.8354C38.7882 52.0235 38.6853 52.1922 38.5361 52.3133C38.387 52.4343 38.2006 52.5002 38.0085 52.4999H34.9575L34.8045 52.4834C34.5862 52.4346 34.3959 52.3018 34.2746 52.1137C34.1534 51.9257 34.111 51.6975 34.1565 51.4784L34.6335 49.3124C32.7963 48.852 31.1066 47.931 29.724 46.6364V46.6199C29.6476 46.544 29.587 46.4536 29.5456 46.3541C29.5042 46.2547 29.4829 46.148 29.4829 46.0402C29.4829 45.9324 29.5042 45.8257 29.5456 45.7262C29.587 45.6268 29.6476 45.5364 29.724 45.4604L31.4295 43.8074C31.7505 43.5074 32.25 43.5074 32.571 43.8074C34.1308 45.2809 36.2036 46.0881 38.349 46.0574C40.566 46.0574 42.048 45.1199 42.048 43.6364C42.048 42.1529 40.548 41.7614 37.719 40.7054C34.719 39.6314 31.872 38.1134 31.872 34.5689C31.872 30.4439 35.298 28.4324 39.3555 28.2449L39.7815 26.1479C39.821 25.9616 39.9243 25.7949 40.0735 25.6766C40.2228 25.5583 40.4086 25.4958 40.599 25.4999H43.6335L43.8045 25.5179C43.9098 25.54 44.0096 25.5827 44.0983 25.6435C44.187 25.7043 44.2628 25.782 44.3213 25.8722C44.3798 25.9624 44.42 26.0633 44.4394 26.169C44.4589 26.2748 44.4572 26.3833 44.4345 26.4884L43.974 28.8239C45.5212 29.3374 46.9559 30.1418 48.201 31.1939L48.2355 31.2269C48.5595 31.5689 48.5595 32.0804 48.2355 32.3864L46.65 33.9719Z" stroke="#847DD2" stroke-width="2.5" stroke-linecap="round" stroke-linejoin="round"/>
</g>
<defs>
<clipPath id="clip0_356_12469">
<rect width="36" height="36" fill="white" transform="translate(21 21)"/>
</clipPath>
</defs>
</svg>
