<svg width="48" height="48" viewBox="0 0 48 48" fill="none" xmlns="http://www.w3.org/2000/svg">
<g id="Frame" clip-path="url(#clip0_425_6961)">
<path id="Vector" d="M14.0009 36C11.5054 36 9.1122 35.0518 7.34766 33.364C5.58311 31.6762 4.5918 29.387 4.5918 27C4.5918 24.6131 5.58311 22.3239 7.34766 20.6361C9.1122 18.9482 11.5054 18 14.0009 18C14.5903 15.3744 16.3144 13.067 18.7941 11.5855C20.0219 10.8519 21.3982 10.3431 22.8444 10.0882C24.2907 9.83338 25.7786 9.83738 27.2231 10.1C28.6676 10.3627 30.0406 10.8788 31.2635 11.619C32.4864 12.3592 33.5353 13.3089 34.3504 14.4139C35.1655 15.5189 35.7308 16.7576 36.014 18.0592C36.2972 19.3609 36.2927 20.6999 36.0009 22H38.0009C39.8574 22 41.6379 22.7375 42.9506 24.0503C44.2634 25.363 45.0009 27.1435 45.0009 29C45.0009 30.8565 44.2634 32.637 42.9506 33.9498C41.6379 35.2625 39.8574 36 38.0009 36H36.0009" stroke="#8E8E8E" stroke-width="4" stroke-linecap="round" stroke-linejoin="round"/>
<path id="Vector_2" d="M18 30L24 24L30 30" stroke="#8E8E8E" stroke-width="4" stroke-linecap="round" stroke-linejoin="round"/>
<path id="Vector_3" d="M24 24V42" stroke="#8E8E8E" stroke-width="4" stroke-linecap="round" stroke-linejoin="round"/>
</g>
<defs>
<clipPath id="clip0_425_6961">
<rect width="48" height="48" fill="white"/>
</clipPath>
</defs>
</svg>
