<svg width="38" height="38" viewBox="0 0 38 38" fill="none" xmlns="http://www.w3.org/2000/svg">
<g id="costumer-service 1">
<g id="costumer_support">
<path id="Vector" d="M36.8125 16.0312V21.9688C36.8125 23.6062 35.4812 24.9375 33.8438 24.9375H33.0355C31.9001 31.6659 26.0473 36.8125 19 36.8125C18.3436 36.8125 17.8125 36.2814 17.8125 35.625C17.8125 34.9686 18.3436 34.4375 19 34.4375C25.5475 34.4375 30.875 29.11 30.875 22.5625V15.4375C30.875 8.89001 25.5475 3.5625 19 3.5625C12.4525 3.5625 7.125 8.89001 7.125 15.4375V23.75C7.125 24.4064 6.59387 24.9375 5.9375 24.9375H4.15625C2.5188 24.9375 1.1875 23.6062 1.1875 21.9688V16.0312C1.1875 14.3938 2.5188 13.0625 4.15625 13.0625H4.96454C6.09985 6.33411 11.9527 1.1875 19 1.1875C26.0473 1.1875 31.9001 6.33411 33.0355 13.0625H33.8438C35.4812 13.0625 36.8125 14.3938 36.8125 16.0312ZM19 5.9375C13.7618 5.9375 9.5 10.1993 9.5 15.4375V21.375C9.5 26.6132 13.7618 30.875 19 30.875C24.2382 30.875 28.5 26.6132 28.5 21.375V15.4375C28.5 10.1993 24.2382 5.9375 19 5.9375Z" fill="#847DD2"/>
</g>
</g>
</svg>
