<svg width="16" height="16" viewBox="0 0 16 16" fill="none" xmlns="http://www.w3.org/2000/svg">
<g id="google-symbol 1" clip-path="url(#clip0_238_8991)">
<g id="Group">
<path id="Vector" d="M15.8712 6.51912C15.9423 6.51912 16 6.57678 16 6.64791V8C16 8.50606 15.953 9.00088 15.8628 9.48088C15.1654 13.2093 11.8807 16.0269 7.94358 15.9998C3.5258 15.9693 -0.009761 12.3998 2.02461e-05 7.98197C0.009739 3.57206 3.5878 0 7.99999 0C10.1616 0 12.123 0.857562 13.5629 2.25056C13.6149 2.30084 13.6163 2.38372 13.5651 2.43484L11.6523 4.34769C11.603 4.39694 11.5235 4.39822 11.473 4.35019C10.5692 3.48991 9.3464 2.96175 7.99999 2.96175C5.21965 2.96175 2.98074 5.18475 2.96186 7.96503C2.9429 10.7636 5.2059 13.0382 7.99999 13.0382C10.267 13.0382 12.1845 11.5406 12.8167 9.48088H8.12877C8.05764 9.48088 7.99999 9.42322 7.99999 9.35209V6.64787C7.99999 6.57675 8.05764 6.51909 8.12877 6.51909H15.8712V6.51912Z" fill="white"/>
<g id="Group_2">
<path id="Vector_2" d="M15.8712 6.51904H14.9054C14.9766 6.51904 15.0342 6.5767 15.0342 6.64782V7.99992C15.0342 8.50598 14.9872 9.00079 14.8971 9.48079C14.2317 13.0377 11.2116 15.7657 7.5166 15.9855C7.65798 15.9938 7.80029 15.9987 7.9436 15.9997C11.8808 16.0269 15.1654 13.2092 15.8629 9.48079C15.953 9.00079 16 8.50598 16 7.99992V6.64779C16 6.5767 15.9424 6.51904 15.8712 6.51904Z" fill="white"/>
</g>
<path id="Vector_3" d="M3.42377 5.89006L0.994141 4.13456C2.3572 1.66922 4.98383 0 8.00002 0C10.1617 0 12.123 0.857562 13.563 2.25056C13.615 2.30084 13.6163 2.38372 13.5651 2.43484L11.6523 4.34769C11.6031 4.39684 11.5236 4.39838 11.4732 4.35044C10.5695 3.49 9.34655 2.96178 8.00002 2.96178C5.97089 2.96178 4.22183 4.16128 3.42377 5.89006Z" fill="white"/>
<path id="Vector_4" d="M2.72266 5.38317L3.42406 5.88995C4.1525 4.31201 5.67338 3.17558 7.47619 2.98917C7.48975 2.9877 7.50278 2.98592 7.51659 2.98461C7.35794 2.96954 7.19716 2.96167 7.03453 2.96167C5.2015 2.96167 3.604 3.92801 2.72266 5.38317Z" fill="white"/>
<path id="Vector_5" d="M12.5967 2.25056C12.6487 2.30084 12.6501 2.38372 12.5989 2.43488L11.0463 3.98747C11.1951 4.10059 11.3374 4.22159 11.4726 4.35022C11.523 4.39825 11.6026 4.39697 11.6519 4.34772L13.5647 2.43488C13.6159 2.38372 13.6145 2.30087 13.5625 2.25056C12.1225 0.857562 10.1612 0 7.99957 0C7.83735 0 7.67641 0.00540625 7.5166 0.0149375C9.4866 0.132281 11.2648 0.962062 12.5967 2.25056Z" fill="white"/>
<path id="Vector_6" d="M13.8681 13.4368C12.4072 15.0133 10.3185 16 7.99965 16C4.86759 16 2.15596 14.2001 0.842773 11.578L3.32324 9.87817C4.06759 11.7303 5.88102 13.0383 7.99965 13.0383C9.32921 13.0383 10.5384 12.5232 11.4385 11.6816L13.8681 13.4368Z" fill="white"/>
<path id="Vector_7" d="M3.32323 9.87817L2.5918 10.3794C3.44133 11.962 5.11192 13.0382 7.03383 13.0382C7.19636 13.0382 7.35702 13.0303 7.51561 13.0152C5.60783 12.8334 4.01017 11.5875 3.32323 9.87817Z" fill="white"/>
<path id="Vector_8" d="M8.00024 16C10.3191 16 12.4078 15.0132 13.8687 13.4367L13.2736 13.0068C11.9019 14.714 9.84409 15.8466 7.51855 15.9854C7.67793 15.9949 7.83849 16 8.00024 16Z" fill="white"/>
<path id="Vector_9" d="M2.96178 7.99996C2.96178 8.66377 3.09022 9.29768 3.32363 9.87812L0.843125 11.5779C0.303594 10.5014 0 9.28608 0 7.99996C0 6.59796 0.360563 5.28027 0.994125 4.13452L3.42375 5.89002C3.12725 6.53162 2.96178 7.24665 2.96178 7.99996Z" fill="white"/>
<path id="Vector_10" d="M2.59231 10.3794L3.32374 9.87818C3.09034 9.29774 2.9619 8.66383 2.9619 8.00002C2.9619 7.24671 3.12737 6.53168 3.42387 5.89008L2.72246 5.3833C2.26699 6.13533 2.00265 7.0178 1.99621 7.96508C1.99028 8.83864 2.20674 9.66118 2.59231 10.3794Z" fill="white"/>
</g>
</g>
<defs>
<clipPath id="clip0_238_8991">
<rect width="16" height="16" fill="white"/>
</clipPath>
</defs>
</svg>
