<svg width="22" height="30" viewBox="0 0 22 30" fill="none" xmlns="http://www.w3.org/2000/svg">
<g id="logo_02" clip-path="url(#clip0_21_4077)">
<g id="Layer 2">
<g id="graphics">
<path id="Vector" d="M7.21192 16.0256L7.18685 16.0749L2.61035 24.9423V16.0256H7.21192Z" fill="black"/>
<path id="Vector_2" d="M17.994 11.9424V16.0222H11.3447L14.6704 11.9424H17.994Z" fill="black"/>
<path id="Vector_3" d="M22.0004 0V4.04306H14.2358L14.2379 4.03897H7.54264L7.3355 4.42824L2.61035 13.2793V0H22.0004Z" fill="black"/>
<path id="Vector_4" d="M14.6765 11.9342L14.6706 11.9423L11.3449 16.0221L11.2669 16.1171L7.54368 20.7052L7.29477 21.0115L5.91827 22.708L3.27736 25.9617L0.194336 29.7611L2.66605 25.9617L7.54368 18.4636L9.13219 16.0221L10.453 13.9911H5.41174L7.54368 10.2393L11.0647 4.04303H14.2358L9.69512 11.9342H14.6765Z" fill="#57AD8D"/>
<path id="Vector_5" d="M7.5436 10.2394L5.41166 13.9911H10.4529L9.13211 16.0222L7.5436 18.4636L2.66597 25.9617L0.194256 29.7612L0 30L2.61027 24.9423L7.18677 16.0749L7.21184 16.0256L7.21253 16.0249H1.145L1.45901 15.4366L2.61027 13.2813V13.2793L7.33542 4.42827L7.54291 4.039H11.0667L11.0646 4.04308L7.5436 10.2394Z" fill="#5B9982"/>
</g>
</g>
</g>
<defs>
<clipPath id="clip0_21_4077">
<rect width="22" height="30" fill="white"/>
</clipPath>
</defs>
</svg>
