<svg width="183" height="48" viewBox="0 0 183 48" fill="none" xmlns="http://www.w3.org/2000/svg">
<g clip-path="url(#clip0_238_8945)">
<path d="M11.1457 26.5725L11.107 26.6482L4.03418 40.2448V26.5725H11.1457Z" fill="black"/>
<path d="M27.8093 20.3115V26.5672H17.5332L22.6729 20.3115H27.8093Z" fill="black"/>
<path d="M34.0007 2V8.19935H22.0007L22.004 8.19309H11.6568L11.3367 8.78996L4.03418 22.3615V2H34.0007Z" fill="black"/>
<path d="M22.6813 20.2992L22.6722 20.3117L17.5325 26.5674L17.412 26.713L11.6579 33.7482L11.2732 34.2177L9.14588 36.8192L5.06448 41.8081L0.299805 47.6339L4.11973 41.8081L11.6579 30.3109L14.1129 26.5674L16.1541 23.4531H8.36307L11.6579 17.7004L17.0994 8.19946H22.0002L14.9828 20.2992H22.6813Z" fill="#57AD8D"/>
<path d="M11.6583 17.7003L8.36348 23.4531H16.1545L14.1133 26.5673L11.6583 30.3108L4.12014 41.808L0.300214 47.6338L0 48L4.03405 40.2448L11.1068 26.6482L11.1456 26.5726L11.1466 26.5715H1.76954L2.25483 25.6694L4.03405 22.3647V22.3616L11.3366 8.78999L11.6572 8.19312H17.103L17.0998 8.19938L11.6583 17.7003Z" fill="#5B9982"/>
</g>
<path d="M41.6193 1.81818V28H36.1733V1.81818H41.6193ZM51.5813 28.3707C50.3285 28.3707 49.212 28.1534 48.2319 27.7188C47.2518 27.2756 46.4762 26.6236 45.9052 25.7628C45.3427 24.8935 45.0614 23.8111 45.0614 22.5156C45.0614 21.4247 45.2617 20.5085 45.6623 19.767C46.0629 19.0256 46.6083 18.429 47.2987 17.9773C47.989 17.5256 48.7731 17.1847 49.6509 16.9545C50.5373 16.7244 51.4663 16.5625 52.4379 16.4688C53.5799 16.3494 54.5004 16.2386 55.1992 16.1364C55.8981 16.0256 56.4052 15.8636 56.7205 15.6506C57.0359 15.4375 57.1935 15.1222 57.1935 14.7045V14.6278C57.1935 13.8182 56.9379 13.1918 56.4265 12.7486C55.9237 12.3054 55.2077 12.0838 54.2788 12.0838C53.2987 12.0838 52.5188 12.3011 51.9393 12.7358C51.3597 13.1619 50.9762 13.6989 50.7887 14.3466L45.7518 13.9375C46.0075 12.7443 46.5103 11.7131 47.2603 10.8438C48.0103 9.96591 48.9776 9.29261 50.1623 8.82386C51.3555 8.34659 52.7362 8.10795 54.3043 8.10795C55.3952 8.10795 56.4393 8.2358 57.4364 8.49148C58.4421 8.74716 59.3327 9.14347 60.1083 9.6804C60.8924 10.2173 61.5103 10.9077 61.962 11.7514C62.4137 12.5866 62.6396 13.5881 62.6396 14.7557V28H57.4748V25.277H57.3214C57.006 25.8906 56.5842 26.4318 56.0558 26.9006C55.5273 27.3608 54.8924 27.723 54.1509 27.9872C53.4094 28.2429 52.5529 28.3707 51.5813 28.3707ZM53.141 24.6122C53.9421 24.6122 54.6495 24.4545 55.2631 24.1392C55.8768 23.8153 56.3583 23.3807 56.7077 22.8352C57.0572 22.2898 57.2319 21.6719 57.2319 20.9815V18.8977C57.0614 19.0085 56.8271 19.1108 56.5288 19.2045C56.239 19.2898 55.9109 19.3707 55.5444 19.4474C55.1779 19.5156 54.8114 19.5795 54.445 19.6392C54.0785 19.6903 53.7461 19.7372 53.4478 19.7798C52.8086 19.8736 52.2504 20.0227 51.7731 20.2273C51.2958 20.4318 50.9251 20.7088 50.6609 21.0582C50.3967 21.3991 50.2646 21.8253 50.2646 22.3366C50.2646 23.0781 50.533 23.6449 51.07 24.0369C51.6154 24.4205 52.3058 24.6122 53.141 24.6122ZM83.2028 13.9631L78.217 14.2699C78.1317 13.8437 77.9485 13.4602 77.6673 13.1193C77.386 12.7699 77.0153 12.4929 76.555 12.2884C76.1033 12.0753 75.5621 11.9688 74.9315 11.9688C74.0877 11.9688 73.3761 12.1477 72.7965 12.5057C72.217 12.8551 71.9272 13.3239 71.9272 13.9119C71.9272 14.3807 72.1147 14.777 72.4897 15.1009C72.8647 15.4247 73.5082 15.6847 74.4201 15.8807L77.9741 16.5966C79.8832 16.9886 81.3065 17.6193 82.244 18.4886C83.1815 19.358 83.6502 20.5 83.6502 21.9148C83.6502 23.2017 83.271 24.331 82.5124 25.3026C81.7624 26.2741 80.7312 27.0327 79.4187 27.5781C78.1147 28.1151 76.6104 28.3835 74.9059 28.3835C72.3065 28.3835 70.2354 27.8423 68.6928 26.7599C67.1587 25.669 66.2596 24.1861 65.9954 22.3111L71.3519 22.0298C71.5138 22.8224 71.9059 23.4276 72.5281 23.8452C73.1502 24.2543 73.9471 24.4588 74.9187 24.4588C75.8732 24.4588 76.6403 24.2756 77.2198 23.9091C77.8079 23.5341 78.1062 23.0526 78.1147 22.4645C78.1062 21.9702 77.8974 21.5653 77.4883 21.25C77.0792 20.9261 76.4485 20.679 75.5962 20.5085L72.1957 19.831C70.2781 19.4474 68.8505 18.7827 67.913 17.8366C66.984 16.8906 66.5195 15.6847 66.5195 14.2188C66.5195 12.9574 66.8604 11.8707 67.5423 10.9588C68.2326 10.0469 69.1999 9.34375 70.4442 8.84943C71.6971 8.35511 73.163 8.10795 74.842 8.10795C77.3221 8.10795 79.2738 8.6321 80.6971 9.6804C82.1289 10.7287 82.9641 12.1562 83.2028 13.9631ZM92.5256 16.6477V28H87.0795V1.81818H92.3722V11.8281H92.6023C93.0455 10.669 93.7614 9.76136 94.75 9.10511C95.7386 8.44034 96.9787 8.10795 98.4702 8.10795C99.8338 8.10795 101.023 8.40625 102.037 9.00284C103.06 9.59091 103.852 10.4389 104.415 11.5469C104.986 12.6463 105.267 13.9631 105.259 15.4972V28H99.8125V16.4688C99.821 15.2585 99.5142 14.3168 98.892 13.6435C98.2784 12.9702 97.4176 12.6335 96.3097 12.6335C95.5682 12.6335 94.9119 12.7912 94.3409 13.1065C93.7784 13.4219 93.3352 13.8821 93.0114 14.4872C92.696 15.0838 92.5341 15.804 92.5256 16.6477ZM109.544 35.3636V8.36364H114.914V11.6619H115.157C115.395 11.1335 115.74 10.5966 116.192 10.0511C116.652 9.49716 117.249 9.03693 117.982 8.67045C118.723 8.29545 119.644 8.10795 120.743 8.10795C122.175 8.10795 123.496 8.48295 124.706 9.23295C125.917 9.97443 126.884 11.0952 127.608 12.5952C128.333 14.0866 128.695 15.9574 128.695 18.2074C128.695 20.3977 128.341 22.2472 127.634 23.7557C126.935 25.2557 125.98 26.3935 124.77 27.169C123.569 27.9361 122.222 28.3196 120.73 28.3196C119.674 28.3196 118.775 28.1449 118.033 27.7955C117.3 27.446 116.699 27.0071 116.23 26.4787C115.762 25.9418 115.404 25.4006 115.157 24.8551H114.99V35.3636H109.544ZM114.875 18.1818C114.875 19.3494 115.037 20.3679 115.361 21.2372C115.685 22.1065 116.154 22.7841 116.767 23.2699C117.381 23.7472 118.127 23.9858 119.005 23.9858C119.891 23.9858 120.641 23.7429 121.255 23.2571C121.868 22.7628 122.333 22.081 122.648 21.2116C122.972 20.3338 123.134 19.3239 123.134 18.1818C123.134 17.0483 122.976 16.0511 122.661 15.1903C122.346 14.3295 121.881 13.6562 121.267 13.1705C120.654 12.6847 119.9 12.4418 119.005 12.4418C118.118 12.4418 117.368 12.6761 116.755 13.1449C116.15 13.6136 115.685 14.2784 115.361 15.1392C115.037 16 114.875 17.0142 114.875 18.1818ZM132.326 28V8.36364H137.772V28H132.326ZM135.061 5.83239C134.252 5.83239 133.557 5.56392 132.978 5.02699C132.407 4.48153 132.121 3.82954 132.121 3.07102C132.121 2.32102 132.407 1.67756 132.978 1.14062C133.557 0.59517 134.252 0.322442 135.061 0.322442C135.871 0.322442 136.561 0.59517 137.132 1.14062C137.712 1.67756 138.002 2.32102 138.002 3.07102C138.002 3.82954 137.712 4.48153 137.132 5.02699C136.561 5.56392 135.871 5.83239 135.061 5.83239ZM151.006 28.3835C148.995 28.3835 147.265 27.9574 145.816 27.1051C144.376 26.2443 143.268 25.0511 142.492 23.5256C141.725 22 141.342 20.2443 141.342 18.2585C141.342 16.2472 141.729 14.483 142.505 12.9659C143.289 11.4403 144.401 10.2514 145.842 9.39915C147.282 8.53835 148.995 8.10795 150.981 8.10795C152.694 8.10795 154.194 8.41903 155.481 9.04119C156.768 9.66335 157.786 10.5369 158.536 11.6619C159.286 12.7869 159.7 14.108 159.776 15.625H154.637C154.492 14.6449 154.109 13.8565 153.487 13.2599C152.873 12.6548 152.067 12.3523 151.07 12.3523C150.227 12.3523 149.489 12.5824 148.859 13.0426C148.237 13.4943 147.751 14.1548 147.401 15.0241C147.052 15.8935 146.877 16.946 146.877 18.1818C146.877 19.4347 147.048 20.5 147.388 21.3778C147.738 22.2557 148.228 22.9247 148.859 23.3849C149.489 23.8452 150.227 24.0753 151.07 24.0753C151.692 24.0753 152.251 23.9474 152.745 23.6918C153.248 23.4361 153.661 23.0653 153.985 22.5795C154.317 22.0852 154.535 21.4929 154.637 20.8026H159.776C159.691 22.3026 159.282 23.6236 158.549 24.7656C157.825 25.8991 156.823 26.7855 155.545 27.4247C154.266 28.0639 152.754 28.3835 151.006 28.3835ZM168.198 22.3494L168.211 15.8168H169.003L175.293 8.36364H181.544L173.094 18.233H171.803L168.198 22.3494ZM163.263 28V1.81818H168.709V28H163.263ZM175.536 28L169.757 19.4474L173.388 15.5994L181.915 28H175.536Z" fill="black"/>
<defs>
<clipPath id="clip0_238_8945">
<rect width="34" height="46" fill="white" transform="translate(0 2)"/>
</clipPath>
</defs>
</svg>
