<svg width="22" height="30" viewBox="0 0 22 30" fill="none" xmlns="http://www.w3.org/2000/svg">
<g id="logo-icon" clip-path="url(#clip0_356_12386)">
<g id="Layer 2">
<g id="graphics">
<path id="Vector" d="M7.2118 16.0255L7.18673 16.0749L2.61023 24.9422V16.0255H7.2118Z" fill="white"/>
<path id="Vector_2" d="M17.9941 11.9424V16.0222H11.3448L14.6705 11.9424H17.9941Z" fill="white"/>
<path id="Vector_3" d="M22.0003 0V4.04306H14.2356L14.2377 4.03897H7.54252L7.33538 4.42824L2.61023 13.2793V0H22.0003Z" fill="white"/>
<path id="Vector_4" d="M14.6764 11.9342L14.6705 11.9424L11.3448 16.0222L11.2668 16.1171L7.54356 20.7053L7.29465 21.0115L5.91815 22.7081L3.27724 25.9617L0.194214 29.7612L2.66593 25.9617L7.54356 18.4636L9.13207 16.0222L10.4529 13.9911H5.41162L7.54356 10.2394L11.0645 4.04309H14.2356L9.695 11.9342H14.6764Z" fill="#57AD8D"/>
<path id="Vector_5" d="M7.5436 10.2393L5.41166 13.9911H10.4529L9.13211 16.0221L7.5436 18.4635L2.66597 25.9617L0.194256 29.7611L0 30L2.61027 24.9422L7.18677 16.0749L7.21184 16.0255L7.21253 16.0249H1.145L1.45901 15.4365L2.61027 13.2813V13.2792L7.33542 4.42821L7.54291 4.03894H11.0667L11.0646 4.04302L7.5436 10.2393Z" fill="#5B9982"/>
</g>
</g>
</g>
<defs>
<clipPath id="clip0_356_12386">
<rect width="22" height="30" fill="white"/>
</clipPath>
</defs>
</svg>
